# xmcd
#
# Track frame offsets: 
#        150
#        18895
#        22355
#        32437
#        42185
#
# Disc length: 865 seconds
#
# Revision: 1
# Processed by: cddbd v1.5.2PL0 Copyright (c) Steve Scherf et al.
# Submitted via: ExactAudioCopyFreeDBPlugin 1.0
#
DISCID=33035f05
DTITLE=Tenacious D - Tribute
DYEAR=2002
DGENRE=Humour
TTITLE0=Tribute (radio edit)
TTITLE1=Cave Intro (demo)
TTITLE2=Jesus Ranch (demo)
TTITLE3=Kyle Quit The Band (demo)
TTITLE4=Explosive (Mocean Worker's Megamix)
EXTD=
EXTT0=
EXTT1=
EXTT2=
EXTT3=
EXTT4=
PLAYORDER=
